<?xml version="1.0" standalone="no"?>
<!DOCTYPE svg PUBLIC "-//W3C//DTD SVG 20010904//EN"
 "http://www.w3.org/TR/2001/REC-SVG-20010904/DTD/svg10.dtd">
<svg version="1.0" xmlns="http://www.w3.org/2000/svg"
 width="148.000000pt" height="106.000000pt" viewBox="0 0 148.000000 106.000000"
 preserveAspectRatio="xMidYMid meet">

<g transform="translate(0.000000,106.000000) scale(0.100000,-0.100000)"
fill="#000000" stroke="none">
<path d="M2 644 l3 -416 204 -109 203 -109 529 2 529 3 -205 109 -205 109 0
414 0 413 -530 0 -530 0 2 -416z m174 304 c5 -8 0 -9 -14 -6 -32 9 -37 -10 -8
-24 17 -7 26 -19 26 -35 0 -19 -5 -23 -29 -23 -17 0 -33 5 -37 11 -5 8 1 10
19 5 34 -8 44 10 15 25 -31 16 -39 31 -26 46 13 16 44 17 54 1z m88 -31 c22
-58 21 -70 -3 -56 -10 7 -26 9 -35 6 -35 -13 -36 -4 -11 58 9 19 19 35 24 35
4 0 16 -19 25 -43z m67 21 l12 -22 17 22 c10 12 23 22 29 22 14 0 15 -97 1
-105 -6 -4 -10 9 -10 32 0 35 -1 36 -17 20 -16 -15 -18 -15 -35 0 -17 15 -18
14 -18 -21 0 -22 -4 -35 -10 -31 -5 3 -10 28 -10 56 0 54 20 67 41 27z m144
12 c4 -6 -5 -10 -19 -10 -31 0 -35 -15 -6 -23 27 -7 36 -35 17 -54 -16 -16
-57 -10 -57 8 0 6 9 8 19 4 30 -9 35 13 7 27 -25 11 -34 37 -19 51 10 11 51 8
58 -3z m37 -32 c2 -30 8 -43 18 -43 10 0 16 13 18 43 2 23 7 42 13 42 15 0 10
-77 -7 -94 -18 -19 -20 -19 -45 -6 -14 8 -19 21 -19 55 0 57 18 59 22 3z m110
10 l27 -33 1 33 c0 17 5 32 10 32 13 0 13 -97 1 -105 -6 -3 -21 11 -35 32
l-26 38 0 -32 c0 -18 -4 -35 -10 -38 -6 -4 -10 15 -10 49 0 31 3 56 8 56 4 0
19 -14 34 -32z m148 17 c10 -13 7 -14 -26 -12 -35 2 -39 -1 -42 -24 -4 -30 20
-45 46 -29 16 9 16 9 0 10 -10 0 -18 5 -18 10 0 6 11 10 25 10 15 0 25 -6 25
-15 0 -8 -11 -22 -25 -31 -23 -15 -27 -15 -50 0 -27 18 -34 63 -13 84 17 17
63 15 78 -3z m-594 -137 c5 -8 0 -9 -14 -6 -32 9 -37 -10 -8 -24 17 -7 26 -19
26 -35 0 -19 -5 -23 -29 -23 -17 0 -33 5 -37 11 -5 8 1 10 19 5 34 -8 44 10
15 25 -31 16 -39 31 -26 46 13 16 44 17 54 1z m38 0 c16 -52 19 -54 29 -20 5
17 14 32 18 32 5 0 15 -15 22 -32 l14 -33 7 33 c4 17 12 32 18 32 10 0 3 -44
-14 -89 -10 -28 -19 -22 -34 22 l-11 32 -12 -37 c-16 -49 -28 -48 -41 3 -6 22
-14 47 -17 55 -3 8 0 14 6 14 7 0 13 -6 15 -12z m-31 -175 c20 -53 18 -60 -12
-41 -16 10 -23 10 -33 0 -20 -20 -28 -14 -18 13 6 14 14 36 20 50 14 36 23 31
43 -22z m117 32 c10 -13 7 -14 -26 -12 -33 2 -39 -1 -42 -20 -4 -26 27 -46 49
-32 19 12 29 11 29 -1 0 -6 -11 -15 -25 -22 -52 -23 -100 46 -59 86 20 20 58
21 74 1z m92 -35 c9 -28 12 -52 7 -56 -5 -3 -9 0 -9 5 0 15 -43 14 -58 -1 -16
-16 -15 -1 4 55 9 26 21 47 28 47 7 0 19 -22 28 -50z m96 38 c16 -16 15 -63
-1 -76 -6 -6 -24 -13 -40 -17 l-27 -7 0 56 c0 55 1 56 28 56 15 0 33 -5 40
-12z m87 2 c-3 -5 -15 -10 -26 -10 -10 0 -19 -4 -19 -10 0 -5 9 -10 19 -10 11
0 23 -4 26 -10 4 -6 -5 -10 -20 -10 -33 0 -29 -22 6 -31 20 -5 21 -7 7 -13
-38 -17 -53 -3 -56 52 l-3 52 36 0 c22 0 34 -4 30 -10z m46 -11 l11 -21 22 21
c12 12 25 21 29 21 11 0 8 -98 -3 -105 -6 -4 -10 9 -10 31 0 35 -1 36 -18 21
-14 -13 -21 -14 -30 -5 -9 9 -12 6 -12 -14 0 -15 -4 -30 -10 -33 -6 -4 -10 15
-10 49 0 58 11 71 31 35z m108 4 c9 -17 11 -17 25 2 20 28 32 12 12 -17 -9
-12 -16 -35 -16 -50 0 -16 -4 -28 -10 -28 -5 0 -10 11 -10 25 0 15 -7 39 -15
55 -16 32 -3 43 14 13z m-559 -133 c0 -5 -9 -10 -20 -10 -11 0 -20 -4 -20 -10
0 -5 9 -10 20 -10 11 0 20 -4 20 -10 0 -5 -9 -10 -20 -10 -13 0 -20 -7 -20
-20 0 -11 -4 -20 -10 -20 -5 0 -10 23 -10 50 0 49 1 50 30 50 17 0 30 -4 30
-10z m104 -6 c9 -8 16 -24 16 -35 0 -23 -34 -59 -55 -59 -20 0 -55 36 -55 57
0 44 63 69 94 37z m91 -42 c1 -52 0 -53 -16 -33 -20 25 -29 27 -29 7 0 -8 -4
-18 -10 -21 -6 -4 -10 15 -10 50 l0 56 33 -3 c32 -3 32 -4 32 -56z m-226 -99
c10 -17 12 -17 26 1 21 27 31 13 11 -16 -9 -12 -16 -33 -16 -45 0 -13 -4 -23
-10 -23 -5 0 -10 12 -10 28 0 15 -7 38 -16 50 -8 12 -11 22 -5 22 5 0 15 -8
20 -17z m155 1 c9 -8 16 -24 16 -35 0 -23 -34 -59 -55 -59 -20 0 -55 36 -55
57 0 44 63 69 94 37z m48 -26 c2 -24 8 -43 13 -43 6 0 11 19 13 43 4 55 22 54
22 -2 0 -52 -18 -73 -49 -56 -16 8 -21 20 -21 55 0 57 18 59 22 3z m138 32 c0
-5 -7 -10 -15 -10 -11 0 -15 -12 -15 -46 0 -27 -4 -43 -10 -39 -5 3 -10 24
-10 46 0 28 -4 39 -15 39 -8 0 -15 5 -15 10 0 6 18 10 40 10 22 0 40 -4 40
-10z m30 -10 c0 -13 7 -20 20 -20 13 0 20 7 20 20 0 11 5 20 10 20 6 0 10 -25
10 -55 0 -30 -4 -55 -10 -55 -5 0 -10 11 -10 25 0 18 -5 25 -20 25 -15 0 -20
-7 -20 -25 0 -14 -4 -25 -10 -25 -5 0 -10 25 -10 55 0 30 5 55 10 55 6 0 10
-9 10 -20z"/>
<path d="M230 906 c0 -9 5 -16 10 -16 6 0 10 4 10 9 0 6 -4 13 -10 16 -5 3
-10 -1 -10 -9z"/>
<path d="M147 631 c-3 -14 0 -21 9 -21 16 0 18 9 5 28 -6 10 -10 9 -14 -7z"/>
<path d="M356 631 c-4 -7 -5 -15 -2 -18 9 -9 19 4 14 18 -4 11 -6 11 -12 0z"/>
<path d="M440 624 c0 -23 4 -34 12 -32 33 11 36 68 3 68 -11 0 -15 -10 -15
-36z"/>
<path d="M204 498 c-9 -28 20 -52 47 -37 11 5 19 14 19 19 0 42 -53 57 -66 18z"/>
<path d="M320 505 c0 -8 7 -15 15 -15 8 0 15 7 15 15 0 8 -7 15 -15 15 -8 0
-15 -7 -15 -15z"/>
<path d="M224 358 c-9 -28 20 -52 47 -37 11 5 19 14 19 19 0 42 -53 57 -66 18z"/>
</g>
</svg>
